CATALOG 4988013793637
FILE "King of Fighters '97 Soundtrack, The (1997)(Pony Canyon)(JP)(Disc 1 of 2)[CD-Audio].img" BINARY
  TRACK 01 AUDIO
    ISRC JPPC09715633
    INDEX 01 00:00:00
  TRACK 02 AUDIO
    ISRC JPPC09715634
    INDEX 01 00:47:22
  TRACK 03 AUDIO
    ISRC JPPC09715635
    INDEX 01 01:17:52
  TRACK 04 AUDIO
    ISRC JPPC09715636
    INDEX 01 01:40:10
  TRACK 05 AUDIO
    ISRC JPPC09715637
    INDEX 01 01:48:25
  TRACK 06 AUDIO
    ISRC JPPC09715638
    INDEX 01 05:15:45
  TRACK 07 AUDIO
    ISRC JPPC09715639
    INDEX 01 05:25:20
  TRACK 08 AUDIO
    ISRC JPPC09715640
    INDEX 01 08:12:35
  TRACK 09 AUDIO
    ISRC JPPC09715641
    INDEX 01 09:18:00
  TRACK 10 AUDIO
    ISRC JPPC09715642
    INDEX 01 12:50:05
  TRACK 11 AUDIO
    ISRC JPPC09715643
    INDEX 01 16:38:32
  TRACK 12 AUDIO
    ISRC JPPC09715644
    INDEX 01 18:53:32
  TRACK 13 AUDIO
    ISRC JPPC09715645
    INDEX 01 21:54:70
  TRACK 14 AUDIO
    ISRC JPPC09715646
    INDEX 01 22:32:62
  TRACK 15 AUDIO
    ISRC JPPC09715647
    INDEX 01 24:09:27
  TRACK 16 AUDIO
    ISRC JPPC09715648
    INDEX 01 26:58:67
  TRACK 17 AUDIO
    ISRC JPPC09715649
    INDEX 01 29:44:55
  TRACK 18 AUDIO
    ISRC JPPC09715650
    INDEX 01 31:16:27
  TRACK 19 AUDIO
    ISRC JPPC09715651
    INDEX 01 34:00:17
  TRACK 20 AUDIO
    ISRC JPPC09715652
    INDEX 01 34:21:65
  TRACK 21 AUDIO
    ISRC JPPC09715653
    INDEX 01 35:35:15
  TRACK 22 AUDIO
    ISRC JPPC09715654
    INDEX 01 38:28:62
  TRACK 23 AUDIO
    ISRC JPPC09715655
    INDEX 01 40:04:02
  TRACK 24 AUDIO
    ISRC JPPC09715656
    INDEX 01 40:23:50
  TRACK 25 AUDIO
    ISRC JPPC09715657
    INDEX 01 41:33:60
  TRACK 26 AUDIO
    ISRC JPPC09715658
    INDEX 01 41:53:50
  TRACK 27 AUDIO
    ISRC JPPC09715659
    INDEX 01 44:50:22
  TRACK 28 AUDIO
    ISRC JPPC09715660
    INDEX 01 46:06:17
  TRACK 29 AUDIO
    ISRC JPPC09715661
    INDEX 01 49:06:45
  TRACK 30 AUDIO
    ISRC JPPC09715662
    INDEX 01 52:13:00
  TRACK 31 AUDIO
    ISRC JPPC09715663
    INDEX 01 53:29:37
  TRACK 32 AUDIO
    ISRC JPPC09715664
    INDEX 01 56:18:62
  TRACK 33 AUDIO
    ISRC JPPC09715665
    INDEX 01 56:56:47
  TRACK 34 AUDIO
    ISRC JPPC09715666
    INDEX 01 58:48:40
  TRACK 35 AUDIO
    ISRC JPPC09715667
    INDEX 01 60:08:62
  TRACK 36 AUDIO
    ISRC JPPC09715668
    INDEX 01 61:53:05
  TRACK 37 AUDIO
    ISRC JPPC09715669
    INDEX 01 62:31:10
  TRACK 38 AUDIO
    ISRC JPPC09715670
    INDEX 01 63:28:60
  TRACK 39 AUDIO
    ISRC JPPC09715671
    INDEX 01 63:58:47
  TRACK 40 AUDIO
    ISRC JPPC09715672
    INDEX 01 65:22:32
  TRACK 41 AUDIO
    ISRC JPPC09715673
    INDEX 01 69:38:52
  TRACK 42 AUDIO
    ISRC JPPC09715674
    INDEX 00 69:52:47
    INDEX 01 69:58:15
